<svg xmlns="http://www.w3.org/2000/svg" viewBox="0 0 535 225.49"><title>logo-main</title><rect x="426.41" y="151.16" width="11.16" height="23" style="fill:#f3b271"/><rect x="426.43" y="84.42" width="11.2" height="23" style="fill:#f3b271"/><polygon points="134.2 76.61 134.2 85.65 145.5 85.65 145.5 66.14 128.94 66.14 128.94 76.61 134.2 76.61" style="fill:#f3b271"/><polygon points="134.15 143.36 134.15 152.79 145.53 152.79 145.53 133 128.86 133 128.86 143.36 134.15 143.36" style="fill:#f3b271"/><polygon points="271.27 39.43 278.68 39.43 278.68 0.12 266.34 0.12 266.34 7.59 271.27 7.81 271.27 39.43" style="fill:#f3b271"/><rect x="45.15" y="118.42" width="100.44" height="3.13" style="fill:#f3b271"/><polygon points="297.13 143.39 297.13 174.15 308.43 174.15 308.43 133.02 292.6 133.02 292.6 143.39 297.13 143.39" style="fill:#f3b271"/><polygon points="478.31 143.41 478.31 174.16 489.65 174.16 489.65 133.02 473.75 133.02 473.75 143.41 478.31 143.41" style="fill:#f3b271"/><polygon points="113.43 174.21 113.43 133.02 97.41 133.02 97.41 143.33 102.06 143.59 102.06 174.21 113.43 174.21" style="fill:#f3b271"/><polygon points="297.03 76.69 297.03 107.35 308.35 107.35 308.35 66.18 292.22 66.18 292.22 76.44 297.03 76.69" style="fill:#f3b271"/><polygon points="277.7 133 244.62 133 244.62 143.6 262.1 143.6 262.1 174.11 273.71 174.11 273.71 143.45 277.7 143.45 277.7 133" style="fill:#f3b271"/><polygon points="277.72 66.2 244.58 66.2 244.58 76.63 262.1 76.63 262.1 107.36 273.69 107.36 273.69 76.69 277.72 76.42 277.72 66.2" style="fill:#f3b271"/><polygon points="426.4 132.93 426.4 143.5 447.92 143.5 447.92 174.16 459.27 174.16 459.27 132.93 426.4 132.93" style="fill:#f3b271"/><polygon points="334.15 9.78 333.95 9.87 333.75 9.96 333.56 10.06 333.37 10.15 333.19 10.26 333.02 10.36 332.85 10.47 332.68 10.57 332.52 10.68 332.36 10.8 332.21 10.91 332.07 11.03 331.93 11.14 331.79 11.27 331.66 11.39 331.53 11.51 331.4 11.64 331.29 11.77 331.17 11.9 331.06 12.03 330.96 12.17 330.85 12.3 330.76 12.44 330.66 12.58 330.57 12.73 330.49 12.87 330.41 13.02 330.32 13.16 330.25 13.31 330.18 13.46 330.11 13.62 330.05 13.77 329.99 13.93 329.93 14.09 329.88 14.25 329.82 14.41 329.78 14.57 329.73 14.73 329.69 14.9 329.65 15.07 329.58 15.4 329.52 15.75 329.47 16.1 329.43 16.45 329.4 16.81 329.38 17.18 329.37 17.55 329.36 17.92 329.37 18.68 329.4 19.46 329.47 21.25 329.51 23.06 329.52 26.66 329.45 33.88 329.45 39.4 337.32 39.4 337.32 15.68 337.39 15.7 337.44 15.72 337.5 15.74 337.56 15.76 337.61 15.78 337.66 15.8 337.71 15.83 337.76 15.85 337.8 15.87 337.84 15.9 337.89 15.93 337.92 15.95 337.96 15.98 338 16 338.03 16.03 338.06 16.06 338.09 16.08 338.12 16.11 338.15 16.14 338.18 16.16 338.21 16.19 338.23 16.23 338.25 16.25 338.28 16.28 338.3 16.31 338.32 16.34 338.36 16.4 338.4 16.46 351.27 37.67 351.62 38.23 351.81 38.52 351.9 38.66 352.01 38.8 352.06 38.86 352.11 38.93 352.15 38.98 352.21 39.05 352.26 39.1 352.31 39.15 352.34 39.18 352.37 39.2 352.39 39.23 352.42 39.25 352.44 39.27 352.47 39.29 352.5 39.31 352.52 39.33 352.55 39.34 352.58 39.36 352.61 39.37 352.62 39.38 352.63 39.39 352.64 39.39 352.66 39.4 352.67 39.4 352.69 39.41 352.7 39.41 352.71 39.42 352.72 39.42 352.74 39.42 352.75 39.43 352.76 39.43 352.78 39.44 352.79 39.44 352.81 39.44 352.82 39.44 352.83 39.44 352.85 39.44 353.82 39.51 354.81 39.54 361.09 39.53 354.68 28.62 354.93 28.53 355.16 28.44 355.38 28.34 355.6 28.24 355.82 28.14 356.02 28.04 356.23 27.93 356.42 27.82 356.61 27.71 356.79 27.59 356.96 27.47 357.13 27.35 357.29 27.22 357.45 27.1 357.6 26.97 357.75 26.84 357.89 26.7 358.03 26.56 358.16 26.42 358.29 26.28 358.4 26.13 358.52 25.98 358.63 25.84 358.74 25.68 358.83 25.53 358.93 25.37 359.02 25.21 359.11 25.05 359.19 24.89 359.27 24.73 359.34 24.56 359.41 24.39 359.48 24.22 359.54 24.05 359.6 23.87 359.65 23.7 359.7 23.52 359.75 23.34 359.79 23.16 359.83 22.97 359.87 22.79 359.9 22.6 359.96 22.23 360.01 21.85 360.04 21.46 360.07 21.07 360.09 20.67 360.09 20.27 360.09 19.86 360.07 19.05 360.03 18.22 360 17.65 359.99 17.08 359.99 15.94 360.01 13.67 360.01 0.16 352.09 0.16 352.09 24.69 350.95 22.97 338.27 2.04 337.89 1.43 337.79 1.27 337.68 1.11 337.57 0.96 337.46 0.81 337.4 0.74 337.35 0.67 337.29 0.6 337.23 0.55 337.17 0.48 337.11 0.43 337.08 0.4 337.05 0.38 337.02 0.35 336.99 0.33 336.96 0.3 336.93 0.28 336.9 0.26 336.87 0.24 336.84 0.22 336.81 0.21 336.78 0.19 336.75 0.17 336.74 0.17 336.72 0.16 336.7 0.16 336.69 0.15 336.68 0.15 336.66 0.14 336.64 0.13 336.63 0.13 336.61 0.13 336.6 0.12 336.59 0.12 336.57 0.12 336.56 0.11 336.54 0.11 336.52 0.11 336.51 0.11 335.53 0.04 334.55 0 328.27 0.02 334.15 9.78" style="fill:#f3b271"/><polygon points="478.33 76.58 478.33 107.36 489.64 107.36 489.64 66.22 426.44 66.22 426.44 76.58 478.33 76.58" style="fill:#f3b271"/><polygon points="326 107.49 343.98 107.56 349.91 107.4 350.22 107.39 350.53 107.36 350.83 107.33 351.13 107.28 351.43 107.24 351.72 107.19 352.02 107.12 352.3 107.06 352.59 106.98 352.87 106.9 353.15 106.81 353.42 106.71 353.69 106.61 353.96 106.5 354.22 106.39 354.48 106.27 354.74 106.14 354.99 106 355.24 105.86 355.48 105.72 355.72 105.57 355.96 105.41 356.19 105.25 356.42 105.08 356.64 104.91 356.85 104.73 357.07 104.55 357.28 104.36 357.48 104.16 357.68 103.96 357.88 103.76 358.07 103.55 358.25 103.34 358.43 103.12 358.61 102.9 358.78 102.67 358.95 102.44 359.11 102.2 359.26 101.96 359.41 101.72 359.56 101.47 359.7 101.22 359.83 100.96 359.96 100.7 360.08 100.44 360.2 100.17 360.31 99.91 360.42 99.63 360.51 99.36 360.61 99.08 360.7 98.79 360.78 98.51 360.86 98.22 360.93 97.93 360.99 97.64 361.05 97.34 361.1 97.04 361.14 96.74 361.18 96.43 361.21 96.13 361.24 95.82 361.26 95.51 361.27 95.2 361.27 78.19 361.26 77.78 361.25 77.39 361.22 76.99 361.17 76.61 361.12 76.22 361.06 75.85 360.99 75.48 360.9 75.11 360.81 74.75 360.71 74.4 360.59 74.05 360.46 73.71 360.33 73.37 360.18 73.04 360.02 72.71 359.85 72.39 359.68 72.08 359.49 71.77 359.29 71.46 359.08 71.16 358.87 70.86 358.64 70.58 358.4 70.29 358.15 70.01 357.89 69.73 357.63 69.46 357.35 69.2 357.06 68.93 356.77 68.67 356.46 68.42 356.15 68.17 355.82 67.93 355.64 67.8 355.45 67.67 355.27 67.55 355.09 67.44 354.9 67.33 354.71 67.23 354.53 67.13 354.35 67.04 354.15 66.95 353.97 66.87 353.78 66.79 353.59 66.72 353.4 66.65 353.21 66.58 353.02 66.52 352.83 66.46 352.64 66.41 352.45 66.36 352.25 66.32 352.06 66.28 351.68 66.2 351.29 66.14 350.9 66.09 350.5 66.06 350.11 66.03 349.72 66.01 348.92 65.99 348.12 66 344.9 66.08 344.09 66.08 343.68 66.06 343.28 66.04 338.55 86.14 347.36 86.14 349.93 76.44 350.1 76.57 350.24 76.69 350.45 76.85 350.49 76.88 350.52 76.91 350.54 76.92 350.55 76.94 350.56 76.95 350.57 76.95 350.58 76.96 350.58 76.96 350.58 76.97 350.59 76.97 350.6 76.98 350.6 76.98 350.6 76.99 350.6 76.99 350.61 76.99 350.61 76.99 350.61 77 350.61 77 350.61 77 350.61 77 350.61 77 350.61 77.01 350.61 77.01 350.61 77.01 350.61 77.02 350.61 77.02 350.62 77.02 350.62 77.02 350.62 77.03 350.62 77.03 350.62 77.03 350.62 77.03 350.62 77.03 350.62 77.04 350.69 95.48 350.69 95.5 350.68 95.51 350.68 95.52 350.68 95.53 350.68 95.54 350.68 95.55 350.68 95.57 350.67 95.58 350.67 95.59 350.67 95.6 350.66 95.61 350.66 95.63 350.65 95.64 350.65 95.65 350.64 95.67 350.64 95.68 350.63 95.71 350.61 95.73 350.6 95.76 350.58 95.78 350.57 95.81 350.55 95.84 350.53 95.86 350.52 95.89 350.5 95.92 350.47 95.95 350.45 95.97 350.43 96 350.38 96.06 350.33 96.11 350.28 96.17 350.22 96.22 350.17 96.28 350.11 96.33 350.05 96.38 349.98 96.43 349.92 96.47 349.86 96.52 349.79 96.56 349.73 96.61 349.66 96.64 349.6 96.68 349.56 96.69 349.53 96.71 349.5 96.72 349.47 96.74 349.44 96.75 349.4 96.76 349.37 96.77 349.34 96.78 349.31 96.79 349.28 96.8 349.25 96.81 349.22 96.81 349.21 96.82 349.19 96.82 349.18 96.82 349.17 96.82 349.15 96.83 349.14 96.83 349.13 96.83 349.11 96.83 336.69 96.89 336.69 66.14 326 66.14 326 107.49" style="fill:#f3b271"/><polygon points="326.02 132.95 326.02 174.31 349.2 174.3 349.51 174.29 349.83 174.27 350.14 174.24 350.44 174.2 350.75 174.16 351.05 174.11 351.36 174.06 351.65 174 351.95 173.92 352.24 173.85 352.53 173.76 352.82 173.67 353.1 173.57 353.38 173.47 353.66 173.36 353.93 173.24 354.2 173.12 354.47 172.99 354.74 172.86 354.99 172.72 355.25 172.57 355.5 172.42 355.75 172.26 355.99 172.1 356.23 171.93 356.47 171.75 356.7 171.57 356.92 171.38 357.15 171.19 357.36 171 357.57 170.8 357.78 170.59 357.98 170.38 358.18 170.17 358.37 169.94 358.56 169.72 358.74 169.49 358.92 169.26 359.09 169.02 359.25 168.78 359.41 168.53 359.56 168.28 359.71 168.03 359.85 167.77 359.98 167.51 360.11 167.24 360.24 166.97 360.35 166.7 360.46 166.43 360.56 166.14 360.66 165.86 360.75 165.58 360.83 165.29 360.91 165 360.98 164.7 361.04 164.41 361.09 164.1 361.14 163.8 361.18 163.5 361.21 163.19 361.24 162.88 361.25 162.57 361.26 162.25 361.25 144.55 361.24 144.19 361.22 143.84 361.19 143.49 361.15 143.15 361.1 142.81 361.04 142.47 360.97 142.15 360.89 141.82 360.8 141.5 360.7 141.19 360.59 140.88 360.48 140.57 360.35 140.27 360.22 139.97 360.07 139.68 359.92 139.39 359.76 139.1 359.59 138.82 359.42 138.54 359.23 138.27 359.04 138 358.84 137.73 358.63 137.47 358.42 137.21 358.19 136.96 357.96 136.7 357.73 136.45 357.49 136.2 357.23 135.96 356.98 135.72 356.71 135.47 356.44 135.24 356.25 135.09 356.07 134.94 355.88 134.79 355.69 134.66 355.5 134.53 355.31 134.4 355.12 134.29 354.93 134.17 354.73 134.06 354.54 133.96 354.35 133.87 354.15 133.78 353.95 133.69 353.75 133.61 353.56 133.53 353.36 133.46 353.16 133.4 352.96 133.33 352.76 133.28 352.56 133.22 352.36 133.17 352.15 133.13 351.95 133.08 351.75 133.04 351.34 132.98 350.93 132.92 350.52 132.88 350.1 132.84 349.68 132.82 349.26 132.81 348.42 132.79 345 132.87 344.14 132.87 343.28 132.85 338.57 152.91 347.36 152.91 349.9 143.45 350.56 143.59 350.56 163.45 336.69 163.45 336.69 132.95 326.02 132.95" style="fill:#f3b271"/><polygon points="318.93 225.38 324.08 209.44 313.61 209.44 313.61 201.83 315.99 201.83 315.99 207.07 326.51 207.07 326.51 209.66 321.43 225.38 318.93 225.38" style="fill:#f3b271"/><polygon points="298.55 225.38 303.69 209.44 293.23 209.44 293.23 201.83 295.6 201.83 295.6 207.07 306.13 207.07 306.13 209.66 301.05 225.38 298.55 225.38" style="fill:#f3b271"/><rect x="379.54" y="214.72" width="2.38" height="10.67" style="fill:#f3b271"/><polygon points="379.54 207.09 379.54 209.46 390.38 209.46 390.38 225.39 392.76 225.39 392.76 207.09 379.54 207.09" style="fill:#f3b271"/><polygon points="271.59 207.09 271.59 209.46 282.43 209.46 282.43 225.39 284.81 225.39 284.81 207.09 271.59 207.09" style="fill:#f3b271"/><rect x="271.59" y="214.72" width="2.38" height="10.67" style="fill:#f3b271"/><polygon points="241.64 225.38 246.78 209.44 236.31 209.44 236.31 201.83 238.69 201.83 238.69 207.07 249.21 207.07 249.21 209.66 244.14 225.38 241.64 225.38" style="fill:#f3b271"/><polygon points="147.25 225.38 152.39 209.44 141.92 209.44 141.92 201.83 144.3 201.83 144.3 207.07 154.82 207.07 154.82 209.66 149.74 225.38 147.25 225.38" style="fill:#f3b271"/><rect x="163.45" y="214.72" width="2.38" height="10.67" style="fill:#f3b271"/><polygon points="163.45 207.09 163.45 209.46 174.29 209.46 174.29 225.39 176.66 225.39 176.66 207.09 163.45 207.09" style="fill:#f3b271"/><polygon points="362.3 209.55 366.7 209.55 366.77 209.57 366.85 209.6 366.92 209.64 366.99 209.67 367.06 209.71 367.13 209.75 367.2 209.79 367.26 209.84 367.33 209.88 367.39 209.93 367.45 209.98 367.51 210.03 367.57 210.09 367.62 210.15 367.68 210.21 367.73 210.27 367.78 210.33 367.82 210.4 367.87 210.46 367.91 210.53 367.95 210.6 367.99 210.67 368.02 210.74 368.06 210.81 368.09 210.88 368.12 210.96 368.14 211.03 368.14 223.02 362.82 223.02 362.82 225.39 370.51 225.39 370.51 210.74 370.48 210.58 370.44 210.43 370.39 210.28 370.34 210.12 370.29 209.98 370.22 209.83 370.15 209.69 370.08 209.54 370.01 209.4 369.93 209.26 369.84 209.13 369.75 209 369.65 208.87 369.56 208.75 369.45 208.62 369.34 208.51 369.23 208.39 369.12 208.28 369 208.18 368.87 208.07 368.75 207.98 368.62 207.88 368.49 207.79 368.35 207.71 368.21 207.63 368.07 207.55 367.93 207.48 367.79 207.42 367.63 207.36 367.49 207.3 367.33 207.25 367.18 207.21 367.03 207.17 356.56 207.17 356.56 209.55 359.48 209.55 359.73 209.55 359.93 209.56 360.01 209.56 360.08 209.57 360.14 209.57 360.17 209.58 360.2 209.58 360.22 209.59 360.24 209.59 360.26 209.59 360.28 209.6 360.29 209.6 360.3 209.61 360.3 209.61 360.31 209.61 360.32 209.61 360.33 209.61 360.33 209.62 360.34 209.62 360.34 209.62 360.35 209.63 360.35 209.63 360.36 209.63 360.36 209.64 360.37 209.64 360.37 209.64 360.37 209.65 360.38 209.65 360.38 209.65 360.39 209.65 360.39 209.66 360.39 209.66 360.39 209.67 360.4 209.67 360.4 209.67 360.41 209.68 360.42 209.69 360.42 209.69 360.42 209.69 360.42 209.7 360.43 209.7 360.43 209.7 360.43 209.71 360.43 209.71 360.44 209.72 360.44 209.72 360.44 209.72 360.44 209.73 360.44 209.73 360.44 209.73 360.45 209.74 360.45 209.74 360.45 209.74 360.45 209.75 360.45 209.75 360.45 209.76 360.45 209.76 360.45 209.76 360.45 209.77 360.45 209.77 360.45 209.78 360.45 209.78 360.46 209.79 360.46 209.79 360.46 209.8 360.46 209.8 360.46 209.81 360.46 209.81 360.46 209.82 360.46 209.82 360.45 209.83 360.45 209.83 360.45 209.84 360.45 209.84 360.45 209.85 360.45 209.85 360.45 209.86 360.45 209.87 360.45 209.87 360.45 209.88 360.45 209.88 360.44 209.9 360.44 209.91 360.43 209.92 360.43 209.93 360.42 209.94 360.42 209.96 360.41 209.97 360.4 209.98 360.39 210 360.39 210.01 360.37 210.04 360.35 210.07 360.32 210.11 360.27 210.17 359.91 210.65 359.82 210.78 359.72 210.91 359.63 211.05 359.54 211.19 359.45 211.34 359.36 211.5 359.28 211.65 359.2 211.81 359.16 211.88 359.12 211.96 359.09 212.04 359.05 212.12 359.02 212.21 358.99 212.3 358.96 212.39 358.92 212.49 358.86 212.72 358.79 212.99 358.62 213.67 356.07 225.5 358.68 225.5 361.73 210.54 361.79 210.28 361.81 210.17 361.84 210.08 361.85 210.04 361.87 210 361.88 209.96 361.89 209.93 361.91 209.9 361.92 209.87 361.93 209.84 361.94 209.81 361.96 209.79 361.96 209.78 361.97 209.76 361.98 209.76 361.98 209.74 361.99 209.73 362 209.72 362.01 209.72 362.02 209.7 362.02 209.69 362.03 209.69 362.04 209.68 362.05 209.67 362.06 209.66 362.07 209.65 362.08 209.64 362.09 209.63 362.1 209.63 362.11 209.62 362.13 209.61 362.14 209.61 362.15 209.6 362.16 209.59 362.18 209.59 362.19 209.58 362.21 209.57 362.23 209.57 362.24 209.56 362.26 209.56 362.3 209.55" style="fill:#f3b271"/><polygon points="220.15 209.55 224.55 209.55 224.63 209.57 224.7 209.6 224.77 209.64 224.84 209.67 224.91 209.71 224.98 209.75 225.05 209.79 225.11 209.84 225.18 209.88 225.24 209.93 225.3 209.98 225.36 210.03 225.42 210.09 225.47 210.15 225.53 210.21 225.58 210.27 225.63 210.33 225.68 210.4 225.72 210.46 225.76 210.53 225.8 210.6 225.84 210.67 225.88 210.74 225.91 210.81 225.94 210.88 225.97 210.96 225.99 211.03 225.99 223.02 220.68 223.02 220.68 225.39 228.37 225.39 228.37 210.74 228.33 210.58 228.29 210.43 228.24 210.28 228.19 210.12 228.14 209.98 228.07 209.83 228 209.69 227.93 209.54 227.86 209.4 227.78 209.26 227.69 209.13 227.6 209 227.5 208.87 227.41 208.75 227.3 208.62 227.19 208.51 227.08 208.39 226.97 208.28 226.85 208.18 226.72 208.07 226.6 207.98 226.47 207.88 226.34 207.79 226.2 207.71 226.06 207.63 225.92 207.55 225.78 207.48 225.63 207.42 225.49 207.36 225.34 207.3 225.19 207.25 225.03 207.21 224.88 207.17 214.41 207.17 214.41 209.55 217.32 209.55 217.58 209.55 217.78 209.56 217.86 209.56 217.93 209.57 218 209.57 218.02 209.58 218.05 209.58 218.07 209.59 218.09 209.59 218.11 209.59 218.13 209.6 218.14 209.6 218.15 209.61 218.16 209.61 218.16 209.61 218.17 209.61 218.18 209.61 218.18 209.62 218.19 209.62 218.19 209.62 218.2 209.63 218.2 209.63 218.21 209.63 218.22 209.64 218.22 209.64 218.22 209.64 218.23 209.65 218.23 209.65 218.23 209.65 218.24 209.65 218.24 209.66 218.25 209.66 218.25 209.67 218.25 209.67 218.26 209.67 218.26 209.68 218.26 209.69 218.27 209.69 218.27 209.69 218.27 209.7 218.28 209.7 218.28 209.7 218.28 209.71 218.28 209.71 218.29 209.72 218.29 209.72 218.29 209.72 218.29 209.73 218.29 209.73 218.29 209.73 218.29 209.74 218.3 209.74 218.3 209.74 218.3 209.75 218.3 209.75 218.3 209.76 218.3 209.76 218.3 209.76 218.3 209.77 218.3 209.77 218.31 209.78 218.31 209.78 218.31 209.79 218.31 209.79 218.31 209.8 218.31 209.8 218.31 209.81 218.31 209.81 218.31 209.82 218.31 209.82 218.31 209.83 218.31 209.83 218.31 209.84 218.3 209.84 218.3 209.85 218.3 209.85 218.3 209.86 218.3 209.87 218.3 209.87 218.3 209.88 218.29 209.88 218.29 209.9 218.29 209.91 218.29 209.92 218.28 209.93 218.27 209.94 218.26 209.96 218.26 209.97 218.25 209.98 218.25 210 218.24 210.01 218.22 210.04 218.19 210.07 218.17 210.11 218.12 210.17 217.75 210.65 217.67 210.78 217.57 210.91 217.48 211.05 217.39 211.19 217.3 211.34 217.21 211.5 217.13 211.65 217.05 211.81 217.01 211.88 216.97 211.96 216.94 212.04 216.9 212.12 216.87 212.21 216.84 212.3 216.81 212.39 216.77 212.49 216.71 212.72 216.64 212.99 216.47 213.67 213.92 225.5 216.53 225.5 219.58 210.54 219.64 210.28 219.66 210.17 219.69 210.08 219.71 210.04 219.72 210 219.73 209.96 219.74 209.93 219.75 209.9 219.77 209.87 219.78 209.84 219.79 209.81 219.81 209.79 219.81 209.78 219.82 209.76 219.83 209.76 219.84 209.74 219.84 209.73 219.85 209.72 219.86 209.72 219.86 209.7 219.87 209.69 219.88 209.69 219.89 209.68 219.9 209.67 219.91 209.66 219.92 209.65 219.93 209.64 219.94 209.63 219.95 209.63 219.96 209.62 219.98 209.61 219.99 209.61 220 209.6 220.02 209.59 220.03 209.59 220.04 209.58 220.06 209.57 220.08 209.57 220.09 209.56 220.11 209.56 220.15 209.55" style="fill:#f3b271"/><polygon points="202.94 216.07 205.31 216.07 205.31 207.17 199.95 207.17 199.95 209.55 202.94 209.55 202.94 216.07" style="fill:#f3b271"/><polygon points="185.81 207.17 191.68 207.17 191.68 221.83 191.64 221.98 191.6 222.14 191.55 222.29 191.5 222.44 191.44 222.59 191.38 222.74 191.32 222.88 191.25 223.02 191.17 223.16 191.08 223.3 191 223.43 190.91 223.57 190.81 223.69 190.71 223.82 190.61 223.94 190.5 224.06 190.39 224.17 190.28 224.28 190.16 224.39 190.03 224.49 189.91 224.59 189.78 224.68 189.65 224.77 189.51 224.85 189.37 224.93 189.24 225.01 189.09 225.08 188.95 225.15 188.8 225.21 188.65 225.26 188.5 225.31 188.34 225.35 188.19 225.39 184.84 225.39 184.84 223.02 187.86 223.02 187.94 222.99 188.01 222.96 188.08 222.93 188.15 222.9 188.22 222.86 188.29 222.82 188.36 222.77 188.43 222.73 188.49 222.68 188.55 222.63 188.61 222.58 188.67 222.53 188.73 222.47 188.78 222.42 188.84 222.36 188.89 222.3 188.94 222.24 188.98 222.17 189.03 222.1 189.07 222.04 189.11 221.97 189.15 221.9 189.19 221.82 189.22 221.76 189.25 221.68 189.28 221.61 189.3 221.53 189.3 209.55 185.81 209.55 185.81 207.17" style="fill:#f3b271"/><polygon points="334.96 223.12 334.96 225.5 344.02 225.5 344.17 225.45 344.33 225.41 344.48 225.36 344.63 225.3 344.78 225.24 344.92 225.18 345.06 225.11 345.21 225.03 345.34 224.95 345.48 224.87 345.61 224.78 345.74 224.68 345.87 224.59 345.99 224.49 346.11 224.38 346.22 224.27 346.34 224.16 346.44 224.04 346.55 223.92 346.64 223.79 346.74 223.66 346.83 223.53 346.92 223.4 347 223.26 347.08 223.12 347.14 222.98 347.21 222.83 347.28 222.69 347.33 222.54 347.38 222.39 347.43 222.24 347.47 222.08 347.51 221.93 347.51 210.74 347.47 210.58 347.43 210.43 347.38 210.28 347.33 210.12 347.28 209.98 347.21 209.83 347.14 209.69 347.08 209.54 347 209.4 346.92 209.26 346.83 209.13 346.74 209 346.64 208.87 346.55 208.75 346.44 208.62 346.34 208.51 346.22 208.39 346.11 208.28 345.99 208.18 345.87 208.07 345.74 207.98 345.61 207.88 345.48 207.79 345.34 207.71 345.21 207.63 345.06 207.55 344.92 207.48 344.78 207.42 344.63 207.36 344.48 207.3 344.33 207.25 344.17 207.21 344.02 207.17 334.96 207.17 334.96 209.55 343.69 209.55 343.76 209.57 343.84 209.6 343.91 209.64 343.99 209.67 344.06 209.71 344.12 209.75 344.19 209.79 344.26 209.84 344.32 209.88 344.38 209.93 344.45 209.98 344.51 210.03 344.56 210.09 344.62 210.15 344.67 210.21 344.72 210.27 344.77 210.33 344.82 210.4 344.86 210.46 344.9 210.53 344.94 210.6 344.98 210.67 345.01 210.74 345.05 210.81 345.08 210.88 345.11 210.96 345.13 211.03 345.13 221.63 345.11 221.7 345.08 221.78 345.05 221.85 345.01 221.93 344.98 222 344.94 222.07 344.9 222.13 344.86 222.2 344.82 222.27 344.77 222.33 344.72 222.4 344.67 222.46 344.62 222.51 344.56 222.57 344.51 222.63 344.45 222.68 344.38 222.73 344.32 222.78 344.26 222.83 344.19 222.87 344.12 222.91 344.06 222.95 343.99 222.99 343.91 223.03 343.84 223.06 343.76 223.09 343.69 223.12 334.96 223.12" style="fill:#f3b271"/><polygon points="304.83 24.96 300.13 31.57 300.13 31.57 300.13 31.58 300.12 31.59 300.12 31.59 300.11 31.6 300.11 31.6 300.11 31.6 300.1 31.61 300.1 31.61 300.09 31.62 300.09 31.62 300.08 31.63 300.08 31.63 300.07 31.64 300.06 31.64 300.05 31.65 300.05 31.66 300.03 31.67 300.02 31.68 300.01 31.68 300 31.69 299.98 31.7 299.97 31.7 299.96 31.71 299.94 31.71 299.93 31.72 299.92 31.72 299.9 31.73 299.89 31.73 299.87 31.74 299.86 31.74 299.84 31.74 299.83 31.75 299.81 31.75 299.8 31.75 299.78 31.75 299.77 31.75 299.75 31.75 299.74 31.75 294.7 31.75 294.7 39.05 301.3 39.05 301.34 39.04 301.38 39.04 301.42 39.04 301.44 39.04 301.46 39.03 301.49 39.03 301.5 39.03 301.52 39.02 301.54 39.02 301.56 39.02 301.58 39.01 301.6 39.01 301.61 39 301.63 38.99 301.65 38.99 301.66 38.98 301.68 38.98 301.69 38.97 301.7 38.96 301.72 38.96 301.72 38.95 301.73 38.95 301.74 38.95 301.74 38.94 301.75 38.94 301.75 38.93 301.76 38.93 301.76 38.93 301.77 38.92 301.77 38.92 301.78 38.91 301.79 38.91 301.79 38.9 301.79 38.9 301.8 38.9 301.8 38.89 301.8 38.89 301.81 38.88 306.11 33.41 306.13 33.39 306.14 33.37 306.16 33.35 306.18 33.33 306.18 33.32 306.19 33.31 306.2 33.31 306.21 33.3 306.21 33.3 306.23 33.29 306.23 33.28 306.24 33.28 306.25 33.27 306.26 33.27 306.26 33.26 306.27 33.26 306.28 33.25 306.29 33.25 306.29 33.25 306.29 33.24 306.3 33.24 306.3 33.24 306.31 33.24 306.31 33.24 306.31 33.24 306.31 33.24 306.32 33.23 306.32 33.23 306.32 33.23 306.33 33.23 306.33 33.23 306.34 33.23 306.34 33.23 306.35 33.23 306.35 33.23 306.35 33.23 306.35 33.23 306.36 33.23 306.36 33.23 306.36 33.23 306.37 33.23 306.37 33.23 306.37 33.23 306.38 33.23 306.38 33.23 306.38 33.23 306.39 33.23 306.39 33.23 306.39 33.23 306.4 33.24 306.4 33.24 306.4 33.24 306.4 33.24 306.41 33.24 306.41 33.24 306.42 33.24 306.42 33.25 306.42 33.25 306.43 33.25 306.43 33.25 306.43 33.26 306.43 33.26 306.44 33.26 306.44 33.26 306.44 33.26 306.44 33.27 306.45 33.27 306.45 33.27 306.45 33.27 306.46 33.28 306.46 33.28 306.46 33.28 306.47 33.29 306.47 33.3 306.48 33.3 306.48 33.31 306.49 33.31 306.49 33.32 306.5 33.33 306.51 33.34 306.51 33.35 306.52 33.36 306.52 33.37 306.52 33.38 306.53 33.39 306.54 33.41 308 38.65 308 38.66 308 38.66 308 38.67 308.01 38.68 308.01 38.69 308.01 38.69 308.02 38.7 308.02 38.7 308.02 38.71 308.02 38.72 308.03 38.73 308.03 38.73 308.04 38.74 308.04 38.74 308.05 38.75 308.05 38.76 308.06 38.76 308.06 38.77 308.06 38.77 308.07 38.78 308.07 38.78 308.08 38.79 308.08 38.79 308.09 38.8 308.1 38.8 308.1 38.81 308.11 38.81 308.12 38.82 308.12 38.82 308.13 38.83 308.14 38.83 308.14 38.84 308.15 38.84 308.16 38.84 308.17 38.85 308.18 38.85 308.18 38.85 308.19 38.86 308.2 38.86 308.21 38.86 308.22 38.87 308.22 38.87 308.24 38.88 308.26 38.88 308.28 38.89 308.3 38.89 308.32 38.89 308.34 38.9 308.36 38.9 308.38 38.9 308.4 38.9 308.42 38.9 308.44 38.9 314.76 38.9 312.88 29.8 312.81 29.44 312.76 29.08 312.71 28.72 312.67 28.35 312.64 27.98 312.61 27.61 312.59 27.24 312.58 26.87 312.58 0.02 298.68 0.02 298.68 7.54 304.97 7.54 304.97 24.55 304.97 24.57 304.97 24.59 304.96 24.61 304.96 24.62 304.96 24.64 304.96 24.65 304.96 24.67 304.96 24.68 304.95 24.7 304.95 24.72 304.95 24.73 304.94 24.74 304.94 24.76 304.93 24.77 304.93 24.79 304.93 24.8 304.92 24.81 304.92 24.82 304.91 24.84 304.9 24.85 304.9 24.86 304.89 24.87 304.88 24.88 304.88 24.9 304.87 24.91 304.87 24.91 304.86 24.93 304.85 24.93 304.85 24.95 304.84 24.95 304.83 24.96" style="fill:#f3b271"/><polygon points="247.18 7.55 250.85 7.49 250.85 0.16 220.25 0.16 220.25 7.69 239.45 7.69 239.45 39.43 247.18 39.43 247.18 7.55" style="fill:#f3b271"/><polygon points="200.03 39.4 207.72 39.4 207.72 0.14 175.15 0.14 175.15 7.58 179.96 7.57 179.96 30.52 179.96 30.55 179.96 30.59 179.96 30.62 179.96 30.65 179.95 30.68 179.95 30.71 179.94 30.74 179.94 30.77 179.94 30.8 179.93 30.83 179.92 30.87 179.92 30.89 179.91 30.93 179.9 30.96 179.89 30.98 179.88 31.02 179.87 31.05 179.87 31.07 179.85 31.1 179.84 31.13 179.83 31.16 179.82 31.19 179.81 31.21 179.79 31.24 179.78 31.27 179.76 31.29 179.75 31.32 179.74 31.34 179.72 31.37 179.7 31.4 179.69 31.42 179.67 31.45 179.65 31.47 179.63 31.49 179.62 31.51 179.59 31.53 179.57 31.56 179.55 31.58 179.54 31.6 179.51 31.62 179.49 31.64 179.47 31.65 179.45 31.67 179.42 31.69 179.4 31.71 179.38 31.72 179.35 31.74 179.33 31.75 179.3 31.77 179.28 31.78 179.25 31.79 179.23 31.8 179.2 31.81 179.17 31.82 179.15 31.83 179.12 31.84 179.09 31.84 179.06 31.85 179.03 31.86 179 31.86 178.97 31.86 178.94 31.87 178.91 31.87 178.88 31.87 173.77 31.87 173.77 39.4 177.96 39.46 178.78 39.45 179.59 39.42 179.99 39.39 180.4 39.36 180.55 39.34 180.71 39.32 180.87 39.29 181.03 39.26 181.19 39.22 181.35 39.18 181.51 39.13 181.67 39.08 181.83 39.03 181.99 38.96 182.15 38.9 182.31 38.83 182.46 38.76 182.62 38.68 182.78 38.59 182.93 38.51 183.09 38.42 183.24 38.32 183.39 38.22 183.54 38.12 183.69 38.01 183.84 37.91 183.98 37.79 184.13 37.67 184.27 37.56 184.41 37.43 184.55 37.3 184.69 37.17 184.82 37.04 184.96 36.91 185.08 36.77 185.21 36.63 185.34 36.48 185.46 36.34 185.58 36.18 185.69 36.03 185.81 35.88 185.92 35.72 186.02 35.56 186.13 35.4 186.23 35.23 186.32 35.06 186.42 34.9 186.5 34.73 186.59 34.55 186.68 34.38 186.75 34.21 186.82 34.03 186.9 33.85 186.96 33.67 187.02 33.49 187.07 33.3 187.13 33.12 187.18 32.93 187.22 32.75 187.25 32.56 187.29 32.37 187.31 32.18 187.33 31.99 187.35 31.8 187.37 31.6 187.37 31.41 187.37 31.22 187.37 31.03 187.29 7.53 200.03 7.53 200.03 39.4" style="fill:#f3b271"/><polygon points="210.38 143.54 216.74 143.54 216.75 162.27 216.74 162.3 216.74 162.33 216.74 162.37 216.74 162.4 216.73 162.43 216.73 162.46 216.73 162.49 216.72 162.52 216.72 162.55 216.71 162.58 216.71 162.61 216.7 162.64 216.69 162.67 216.69 162.7 216.68 162.73 216.67 162.76 216.66 162.79 216.65 162.82 216.64 162.85 216.63 162.88 216.61 162.91 216.6 162.93 216.59 162.96 216.58 162.99 216.56 163.02 216.55 163.04 216.53 163.07 216.52 163.09 216.5 163.12 216.49 163.15 216.47 163.17 216.45 163.19 216.43 163.22 216.42 163.24 216.39 163.26 216.38 163.28 216.36 163.31 216.34 163.32 216.32 163.34 216.3 163.36 216.28 163.38 216.25 163.4 216.23 163.42 216.21 163.44 216.18 163.45 216.16 163.47 216.14 163.48 216.11 163.5 216.09 163.51 216.06 163.52 216.03 163.54 216.01 163.55 215.98 163.56 215.96 163.57 215.93 163.57 215.9 163.59 215.87 163.59 215.84 163.6 215.81 163.6 215.79 163.6 215.76 163.61 215.72 163.61 215.69 163.61 215.66 163.61 209.52 163.61 209.52 174.31 217.97 174.3 218.26 174.29 218.55 174.28 218.83 174.26 219.11 174.23 219.38 174.19 219.66 174.16 219.93 174.11 220.19 174.06 220.46 174.01 220.72 173.95 220.97 173.88 221.22 173.81 221.47 173.73 221.72 173.65 221.96 173.56 222.19 173.47 222.42 173.37 222.65 173.27 222.88 173.15 223.1 173.04 223.31 172.92 223.53 172.8 223.73 172.67 223.94 172.54 224.14 172.39 224.33 172.25 224.52 172.1 224.71 171.95 224.89 171.79 225.07 171.63 225.24 171.46 225.41 171.29 225.58 171.11 225.73 170.93 225.89 170.74 226.04 170.55 226.18 170.36 226.32 170.16 226.46 169.96 226.59 169.75 226.71 169.54 226.83 169.32 226.95 169.1 227.06 168.88 227.16 168.65 227.26 168.42 227.35 168.18 227.44 167.94 227.53 167.7 227.6 167.45 227.68 167.2 227.75 166.94 227.81 166.69 227.86 166.42 227.91 166.16 227.96 165.89 228 165.62 228.03 165.34 228.06 165.06 228.08 164.78 228.1 164.49 228.1 164.2 228.12 135.37 228.12 132.98 210.38 132.98 210.38 143.54" style="fill:#f3b271"/><polygon points="46.15 143.53 51.23 143.53 51.23 162.27 51.23 162.3 51.23 162.33 51.23 162.36 51.22 162.39 51.22 162.43 51.22 162.46 51.21 162.49 51.21 162.52 51.2 162.55 51.2 162.58 51.19 162.61 51.19 162.64 51.18 162.67 51.17 162.7 51.16 162.73 51.15 162.76 51.14 162.79 51.13 162.82 51.12 162.85 51.11 162.88 51.1 162.9 51.09 162.93 51.08 162.96 51.06 162.99 51.05 163.01 51.03 163.04 51.02 163.07 51.01 163.09 50.99 163.12 50.97 163.15 50.95 163.17 50.94 163.19 50.92 163.22 50.9 163.24 50.88 163.26 50.86 163.28 50.84 163.3 50.82 163.32 50.8 163.34 50.78 163.36 50.76 163.38 50.74 163.4 50.71 163.42 50.69 163.44 50.67 163.45 50.65 163.47 50.62 163.48 50.6 163.5 50.57 163.51 50.55 163.52 50.52 163.54 50.49 163.54 50.47 163.56 50.44 163.57 50.41 163.57 50.38 163.59 50.35 163.59 50.33 163.6 50.3 163.6 50.27 163.6 50.24 163.61 50.21 163.61 50.18 163.61 50.15 163.61 45.04 163.61 45.04 174.31 52.95 174.3 53.2 174.3 53.45 174.28 53.7 174.26 53.95 174.24 54.19 174.21 54.43 174.17 54.67 174.13 54.91 174.08 55.15 174.03 55.38 173.97 55.61 173.91 55.84 173.83 56.07 173.76 56.29 173.68 56.52 173.59 56.74 173.5 56.95 173.4 57.17 173.3 57.38 173.19 57.59 173.08 57.79 172.96 57.99 172.84 58.19 172.72 58.39 172.59 58.58 172.45 58.77 172.31 58.95 172.16 59.13 172.02 59.31 171.87 59.49 171.71 59.66 171.55 59.82 171.38 59.99 171.22 60.15 171.04 60.3 170.87 60.45 170.69 60.6 170.5 60.74 170.32 60.88 170.13 61.01 169.93 61.14 169.74 61.26 169.53 61.38 169.33 61.49 169.12 61.6 168.91 61.71 168.7 61.81 168.48 61.91 168.26 61.99 168.04 62.08 167.82 62.16 167.59 62.23 167.36 62.3 167.13 62.36 166.9 62.42 166.66 62.48 166.42 62.52 166.18 62.56 165.94 62.6 165.69 62.62 165.45 62.65 165.2 62.66 164.95 62.68 164.7 62.7 145.69 62.71 145.39 62.81 143.65 71.96 143.65 71.96 174.17 83.22 174.17 83.22 132.95 46.15 132.95 46.15 143.53" style="fill:#f3b271"/><polygon points="210.38 76.76 216.75 76.75 216.75 95.49 216.75 95.52 216.74 95.55 216.74 95.58 216.74 95.61 216.74 95.64 216.73 95.67 216.73 95.71 216.72 95.73 216.72 95.76 216.72 95.8 216.71 95.83 216.7 95.86 216.69 95.89 216.69 95.92 216.68 95.95 216.67 95.97 216.66 96.01 216.65 96.04 216.64 96.06 216.63 96.09 216.62 96.12 216.6 96.15 216.59 96.18 216.58 96.2 216.56 96.23 216.55 96.26 216.53 96.28 216.52 96.31 216.5 96.33 216.49 96.36 216.47 96.38 216.45 96.41 216.43 96.43 216.42 96.45 216.4 96.47 216.38 96.5 216.36 96.52 216.34 96.54 216.32 96.56 216.3 96.58 216.28 96.6 216.25 96.62 216.23 96.64 216.21 96.65 216.18 96.67 216.16 96.68 216.14 96.7 216.11 96.71 216.09 96.73 216.06 96.74 216.04 96.75 216.01 96.76 215.99 96.77 215.96 96.78 215.93 96.79 215.9 96.8 215.87 96.81 215.84 96.81 215.82 96.82 215.79 96.82 215.76 96.83 215.72 96.83 215.69 96.83 215.66 96.83 209.53 96.83 209.53 107.52 217.97 107.52 218.26 107.51 218.55 107.49 218.83 107.47 219.11 107.44 219.38 107.41 219.66 107.38 219.93 107.33 220.19 107.28 220.46 107.22 220.72 107.16 220.97 107.1 221.22 107.02 221.47 106.94 221.72 106.86 221.96 106.77 222.19 106.68 222.42 106.58 222.65 106.48 222.88 106.37 223.1 106.25 223.31 106.13 223.53 106.01 223.73 105.88 223.94 105.75 224.14 105.61 224.33 105.47 224.53 105.32 224.71 105.16 224.89 105 225.07 104.84 225.25 104.67 225.41 104.5 225.58 104.33 225.73 104.14 225.89 103.96 226.04 103.77 226.18 103.57 226.32 103.38 226.46 103.17 226.59 102.97 226.71 102.75 226.84 102.54 226.95 102.32 227.06 102.09 227.16 101.87 227.26 101.63 227.36 101.4 227.44 101.16 227.53 100.91 227.6 100.67 227.68 100.41 227.75 100.16 227.81 99.9 227.86 99.64 227.91 99.37 227.96 99.11 228 98.83 228.03 98.55 228.06 98.27 228.08 97.99 228.1 97.71 228.11 97.41 228.12 68.58 228.12 66.2 210.38 66.2 210.38 76.76" style="fill:#f3b271"/><polygon points="209.5 118.42 209.5 121.54 489.83 121.54 489.87 118.42 209.5 118.42" style="fill:#f3b271"/><path d="M5.34,129.09a.73.73,0,0,1-.7-1l2.7-8.26-7-5.1a.73.73,0,0,1,.43-1.33H9.43l2.67-8.27a.76.76,0,0,1,1.4,0l2.68,8.27h8.69a.73.73,0,0,1,.43,1.33l-7,5.1,2.7,8.26a.73.73,0,0,1-1.13.82l-7-5.12-7,5.12A.73.73,0,0,1,5.34,129.09Zm7.46-6.9a.73.73,0,0,1,.43.14l5.63,4.1-2.16-6.61A.73.73,0,0,1,17,119l5.63-4.08h-7a.73.73,0,0,1-.7-.51l-2.14-6.62-2.14,6.62a.73.73,0,0,1-.7.51H3L8.64,119a.73.73,0,0,1,.27.82l-2.16,6.61,5.62-4.1A.73.73,0,0,1,12.8,122.19Z" style="fill:#f3b271"/><path d="M529.66,129.09a.73.73,0,0,1-.43-.14l-7-5.12-7,5.12a.73.73,0,0,1-1.13-.82l2.7-8.26-7-5.1a.73.73,0,0,1,.43-1.33h8.69l2.68-8.27a.73.73,0,0,1,.7-.51h0a.73.73,0,0,1,.7.51l2.67,8.27h8.69a.73.73,0,0,1,.43,1.33l-7,5.1,2.7,8.26a.73.73,0,0,1-.7,1ZM512.4,114.91,518,119a.74.74,0,0,1,.27.82l-2.16,6.61,5.63-4.1a.73.73,0,0,1,.86,0l5.62,4.1-2.16-6.61a.73.73,0,0,1,.27-.82l5.63-4.08h-7a.73.73,0,0,1-.7-.51l-2.14-6.62-2.14,6.62a.65.65,0,0,1-.7.51Z" style="fill:#f3b271"/><path d="M184.52,174.17H159.71V65.92h10.65l0,97.41h0l.29.32.16,0h13.57l.46,1-.22-1.06.16-.1,1,.51-.86-.66.09-.21V76.82h0l1-.52-1.05.27.9-.65-1,.47.88-.66-1,.49.74-.83-.84.66h0l-.31-.21-.53.18-.88-.66.74.79-1-.48.87.65-1-.48.84.6,0,.06,0,0-.05.08L181,86l-8.12-.12,4.73-19.93,8.07.11,5,2.67,3,3.9,1,2.95,0,88.79-.86,2.76-1.51,2.51-2.06,2.07-2.5,1.53-2.8.89ZM161.88,172l23.41-.2,2.55-1.06L190,169l1.61-2.22,1-2.82,0-88.45L190,71l-2.87-2.13-2.09-.79h-5.71l-3.71,15.64,3.7.06,2.5-8.76,1.22-1,1.14-.28.53,0-.09,1.09.28-1,1.05.54L187,76l.19.79-.1,87-.65,1.16-1.32.79-.66.09-15-.45-.51-.44.72-.82-.85.67-.52-1-.09-.62V68.09h-6.31Zm8-8.59-.49.27,1-.33Zm15.31-86.64h.41l.45-.27Z" style="fill:#f3b271"/><path d="M410.6,86v5.06l-.1,5.05v.54l0,.27,0,.27,0,.27,0,.26,0,.26,0,.27-.05.25-.06.26-.07.25-.07.25-.07.25-.08.25-.09.24-.09.24-.1.24-.1.23-.1.23-.11.23-.11.23-.12.22-.12.22-.13.21-.13.21-.14.21-.14.21-.15.2-.15.2-.15.19-.16.19-.16.19-.17.19-.17.18-.17.17-.19.17-.18.16-.18.16-.19.16-.2.16-.2.15-.2.15-.2.14-.22.14-.21.14-.22.13-.23.12-.22.12-.23.11-.23.11-.24.11-.24.09-.24.1-.25.09-.25.08-.25.08-.26.07L402,107l-.26.06-.27.05-.27.06-.27,0-.27,0-.28,0-.91.09-.92.07-.92.06-.93,0-1.86,0-1.86,0-1.86-.08-1.86-.14-1.85-.2-1.83-.24-.21,0-.21,0-.2,0-.21-.05-.2-.06-.21-.06-.21-.07-.2-.07-.2-.09-.2-.09-.2-.1-.19-.09L383,106l-.19-.11-.18-.11-.19-.11-.18-.13-.19-.12-.18-.12-.18-.14-.18-.14-.18-.14-.17-.14-.17-.15-.17-.15-.17-.16-.16-.16-.16-.16-.16-.17-.15-.17-.15-.18-.15-.17-.14-.18-.14-.18-.14-.19-.14-.18-.13-.19-.13-.19-.13-.19-.12-.19-.12-.2-.11-.2-.11-.2-.11-.21-.1-.21-.09-.2-.09-.21-.1-.2-.08-.21-.08-.21-.08-.2-.07-.21-.06-.21-.06-.21-.05-.21,0-.21,0-.21,0-.21,0-.21,0-.2,0-.21,0-.21v-.42l0-30.65,23.53.06h.22l.21,0,.22,0,.21,0,.22,0,.22,0,.21.05.22.05.21.06.22.07.21.08.21.08.22.09.21.09.21.1.21.1.22.11.2.12.2.11.21.12.21.13.2.13.2.14.2.14.19.15.19.15.19.15.19.16.18.16.18.17.18.17.17.17.17.17.17.18.16.19.16.18.16.19.15.19.15.19.15.2.14.19.14.2.13.2.13.2.12.2.12.21.12.21.11.21.11.21.1.21.09.21.09.21.09.21.07.22L410,74l.06.22.06.21.05.22,0,.22,0,.21,0,.22,0,.22,0,.21v.22ZM398.75,96.89V76.74H388.62l.07,18.63h0v0h0v0h0v.23l0,0v0l0,0,0,0,0,.06,0,.06,0,.06,0,.06.05.05.05.06.05.05.05.06.06.05.06,0,.06.05.06,0,.06,0,.06,0,0,0,0,0,0,0h0l0,0H390l0,0h.16l2.13.07Z" style="fill:#f3b271"/><path d="M410.48,162v1.05l0,.26,0,.27,0,.27,0,.26,0,.26-.05.27-.05.26-.07.26-.07.26-.07.26-.08.26-.09.25-.1.25-.09.25-.11.25-.11.25-.11.24-.12.24-.13.25-.12.23-.14.24-.14.23-.15.23-.15.23-.16.23-.16.22-.16.22-.17.21-.18.2-.17.21-.18.2-.19.2-.19.19-.2.19-.19.18-.21.18-.21.17-.2.17-.22.16-.22.16-.22.15-.23.15-.22.14-.23.14-.23.13L404,173l-.25.11-.24.11-.24.11-.26.09-.24.1-.26.08-.25.07-.26.07-.27.06-.26.06-.27,0-.27,0-.27,0-1.91.17-1.91.11-1.93.06H393l-1,0-1,0-1-.07-1-.09-1-.1-.94-.12-.94-.14-.93-.16-.22,0-.22,0-.21,0-.21-.05-.21-.06-.21-.07-.21-.06-.2-.07-.2-.08-.2-.08-.2-.08-.19-.09-.19-.09-.19-.09-.18-.09-.19-.11-.18-.1-.18-.11-.18-.11-.17-.11-.17-.12-.17-.12-.17-.13-.16-.13-.16-.13-.16-.14-.15-.13-.15-.15-.14-.14-.15-.15-.14-.15-.14-.15-.14-.16-.13-.16-.14-.15-.12-.17-.12-.17-.12-.17-.11-.17-.11-.17-.11-.18-.1-.18-.1-.18-.1-.19-.09-.19-.09-.19-.09-.19-.08-.19-.08-.2-.07-.19-.07-.21-.07-.2-.06-.21-.05-.2-.05-.21,0-.21,0-.21,0-.21,0-.22,0-.22,0-.22,0-.22,0-.22v-.22l-.21-7.75.07-23.55,23.3.05.24,0,.24,0,.24,0,.23,0,.24,0,.24,0,.23.05.23.07.24.06.23.08.23.08.23.09.23.1.23.11.22.11.23.12.22.12.22.13.22.13.21.14.21.14.2.15.21.15.2.16.2.16.2.17.19.17.19.17.19.18.19.19.18.19.18.19.18.19.17.2.17.2.16.21.16.21.16.21.15.21.15.22.15.22.13.22.13.23.13.23.13.23.12.23.1.23.11.23.1.23.09.24.09.24.08.24.08.24.07.24.06.24.06.25.06.24,0,.24,0,.25,0,.25,0,.24,0,.24v.49l-.07,13.47.05,2.24.11,2.23Zm-11.83,1.59v-20H388.43l.05,18.54h0v.28l0,0v.06l0,.05,0,.06,0,.06,0,.05,0,.06,0,.05,0,.06,0,.06.05,0,0,.05.05,0,.05,0,.05,0,0,0,0,0,0,0,0,0h0l0,0h.33l2.19.06Z" style="fill:#f3b271"/><path d="M113.44,76.34l.16,7.7-.06,23.39H45.11V66h57.38l.26,0,.26,0,.27,0,.26,0,.27,0,.26,0,.27.05.26.06.26.07.26.07.26.08.26.09.25.08.25.1.24.1.25.11.25.11.24.11.24.13.24.13.23.13.23.13.22.14.23.14.22.15.22.16.21.16.21.16.21.17.2.17.2.18.19.18.19.18.18.19.18.19.18.2.17.2.17.2.16.21.15.21.15.21.14.22.14.22.14.22.13.22.12.23.11.23.11.24.1.24.1.24.09.24.09.25.08.25.07.25.07.25.05.25.05.26,0,.26,0,.26,0,.27,0,.27Zm-11.59.38H56.73v20h45.12Z" style="fill:#f3b271"/></svg>